Coordinates
version=1
nRows=22
nColumns=24
inDegrees=yes

Units are S.I. units (second, meters, Newtons, ...)
Angles are in degrees.

endheader
time	pelvis_tilt	pelvis_list	pelvis_rotation	pelvis_tx	pelvis_ty	pelvis_tz	hip_flexion_r	hip_adduction_r	hip_rotation_r	knee_angle_r	ankle_angle_r	subtalar_angle_r	mtp_angle_r	hip_flexion_l	hip_adduction_l	hip_rotation_l	knee_angle_l	ankle_angle_l	subtalar_angle_l	mtp_angle_l	lumbar_extension	lumbar_bending	lumbar_rotation
      7.06000000	     -8.48900617	     -4.85295096	      3.88499659	     -0.77563069	      0.00047494	     -0.22408042	     11.08910783	      8.92274354	      5.28798989	    -11.24127551	      1.33552136	     -3.35334334	     10.67420788	     27.42391747	     -6.53197231	      0.79054802	    -60.18657274	     -9.69518757	     -6.40744466	     20.81850805	      7.27403796	      3.81597957	      1.15248696
      7.06500000	     -8.47918547	     -4.64759300	      3.68012743	     -0.77089742	      0.00065771	     -0.22348401	     10.62996034	      8.78781547	      5.49126662	    -11.04654425	      1.55962335	     -3.25947551	     10.73648708	     27.91211081	     -6.30116210	      0.52670411	    -59.51463606	     -9.19405985	     -6.34780659	     20.96815704	      7.14794166	      3.62652130	      1.49969484
      7.07000000	     -8.43360259	     -4.46087783	      3.45822327	     -0.76618444	      0.00083135	     -0.22291880	     10.13960582	      8.66969243	      5.69489653	    -10.85745365	      1.76402414	     -3.13497618	     10.83892280	     28.34147045	     -6.09925758	      0.26115474	    -58.78490694	     -8.70015804	     -6.31148139	     21.07387140	      6.98014344	      3.47341779	      1.86632740
      7.07500000	     -8.43285746	     -4.27815419	      3.31369768	     -0.76147671	      0.00087404	     -0.22242999	      9.70268552	      8.53930569	      5.83738663	    -10.66716009	      1.98987120	     -3.09621047	     10.94903358	     28.82888979	     -5.85194449	      0.10216774	    -58.01896802	     -8.25325154	     -6.27942065	     21.13899356	      6.87312025	      3.29527131	      2.13508370
      7.08000000	     -8.39097376	     -4.09818534	      3.10584217	     -0.75680069	      0.00092002	     -0.22194839	      9.23794077	      8.41745585	      6.02225927	    -10.50642025	      2.21288142	     -3.01543580	     11.11011357	     29.23478427	     -5.64110489	     -0.10802432	    -57.18993175	     -7.79239348	     -6.25023479	     21.15539483	      6.71103923	      3.15586366	      2.46942192
      7.08500000	     -8.34584218	     -3.93443080	      2.92252988	     -0.75212295	      0.00091373	     -0.22146071	      8.77684759	      8.31051423	      6.19427994	    -10.35352606	      2.42234683	     -2.96501924	     11.28120678	     29.62725863	     -5.43495860	     -0.26498110	    -56.31312480	     -7.36406609	     -6.24625396	     21.10373741	      6.55131099	      3.00887422	      2.77533417
      7.09000000	     -8.24676403	     -3.78263046	      2.70053089	     -0.74744515	      0.00093937	     -0.22100725	      8.25733483	      8.21535067	      6.40443845	    -10.19646757	      2.58608006	     -2.89572204	     11.51919580	     29.93240439	     -5.26576603	     -0.45583443	    -55.38583867	     -6.93963691	     -6.25820485	     20.89622475	      6.33068395	      2.89908926	      3.12707130
      7.09500000	     -8.18646188	     -3.63020649	      2.51645910	     -0.74280322	      0.00085784	     -0.22063068	      7.79908256	      8.11149362	      6.59964695	    -10.06968389	      2.76303122	     -2.91697266	     11.74749025	     30.27366978	     -5.06402140	     -0.57331706	    -54.41792906	     -6.53939687	     -6.25736238	     20.62379352	      6.15323267	      2.78753081	      3.42452627
      7.10000000	     -8.13470783	     -3.48754560	      2.32870177	     -0.73814513	      0.00072069	     -0.22022339	      7.35939557	      8.02131471	      6.81575730	     -9.96417673	      2.94204183	     -2.96669363	     11.95063716	     30.60313899	     -4.88143898	     -0.67838973	    -53.40183902	     -6.16868615	     -6.26077383	     20.29935918	      5.99014672	      2.66799328	      3.71973665
      7.10500000	     -8.07993879	     -3.35134391	      2.13796742	     -0.73354145	      0.00055169	     -0.21984429	      6.93276784	      7.93664366	      7.05476786	     -9.88431728	      3.10963188	     -3.04297969	     12.11864962	     30.91260884	     -4.70705800	     -0.76588860	    -52.33896084	     -5.82372398	     -6.26873166	     19.90501075	      5.81618844	      2.56269502	      4.01768284
      7.11000000	     -8.02626954	     -3.22510139	      1.94864040	     -0.72895264	      0.00035626	     -0.21950022	      6.52220992	      7.86167718	      7.31547328	     -9.83351703	      3.26439285	     -3.15203642	     12.24181069	     31.20085139	     -4.53747732	     -0.81344726	    -51.22876471	     -5.50777562	     -6.25894964	     19.42617634	      5.63855258	      2.46842499	      4.32314295
      7.11500000	     -7.99612981	     -3.09552123	      1.75334579	     -0.72432692	      0.00009049	     -0.21915240	      6.13740469	      7.78354433	      7.58917026	     -9.78942079	      3.45485557	     -3.28507134	     12.30961675	     31.48845956	     -4.38107872	     -0.88011130	    -50.06824241	     -5.22888210	     -6.25725730	     18.96394391	      5.49661649	      2.36854937	      4.59767842
      7.12000000	     -7.99049037	     -2.97584348	      1.58649084	     -0.71970924	     -0.00023712	     -0.21884851	      5.79390162	      7.71188599	      7.84337733	     -9.77519235	      3.65897566	     -3.43449523	     12.33091405	     31.78524892	     -4.22293500	     -0.89995085	    -48.85605715	     -5.00270769	     -6.24438139	     18.56512059	      5.38186477	      2.27097728	      4.83290965
      7.12500000	     -7.93953159	     -2.86428071	      1.37184651	     -0.71516359	     -0.00051305	     -0.21852587	      5.41693817	      7.65529521	      8.18804267	     -9.78983296	      3.82407295	     -3.60753323	     12.27467250	     32.00187078	     -4.09499550	     -0.92110933	    -47.60084010	     -4.79244452	     -6.22679056	     17.97030163	      5.19652395	      2.19568034	      5.16002515
      7.13000000	     -7.98966011	     -2.76298687	      1.25627715	     -0.71058559	     -0.00096719	     -0.21830480	      5.16760202	      7.59562473	      8.38405746	     -9.83424361	      4.04198247	     -3.76204589	     12.26972108	     32.32414920	     -3.93217638	     -0.83664530	    -46.29514205	     -4.65823638	     -6.15272545	     17.68743019	      5.13809930	      2.10902863	      5.32099263
      7.13500000	     -7.88455396	     -2.66053747	      1.04755635	     -0.70594052	     -0.00125680	     -0.21801075	      4.70926641	      7.55266624	      8.81690135	     -9.83181981	      4.21908878	     -4.07161677	     11.92999866	     32.42810310	     -3.83392975	     -0.87653643	    -44.98444027	     -4.26959557	     -5.96741719	     16.58734420	      4.90772385	      2.04517546	      5.62047837
      7.14000000	     -7.94728064	     -2.56424014	      0.84356269	     -0.70138564	     -0.00175666	     -0.21776610	      4.49664913	      7.50116936	      9.09801028	     -9.92719136	      4.47616891	     -4.16310995	     11.86990768	     32.69914821	     -3.73158579	     -0.86747208	    -43.58962631	     -4.20401052	     -5.99597175	     16.15148058	      4.85175152	      1.98456640	      5.90312594
      7.14500000	     -8.01290024	     -2.46202304	      0.70766576	     -0.69676607	     -0.00229289	     -0.21758460	      4.27840055	      7.43681970	      9.32186924	    -10.00914098	      4.71017707	     -4.31260372	     11.83698557	     32.94943781	     -3.60062750	     -0.79879042	    -42.14346820	     -4.14198891	     -5.91265796	     15.84604592	      4.81087713	      1.89737655	      6.05292601
      7.15000000	     -8.04693496	     -2.35565322	      0.52889756	     -0.69212747	     -0.00280496	     -0.21737442	      4.02264902	      7.37043883	      9.62788156	    -10.09546703	      4.93755682	     -4.46639158	     11.75619422	     33.12688265	     -3.49487895	     -0.77504378	    -40.65431541	     -4.07371761	     -5.87577336	     15.40247537	      4.73416819	      1.81944256	      6.30080251
      7.15500000	     -8.04912717	     -2.26663532	      0.32380183	     -0.68740921	     -0.00329231	     -0.21713794	      3.70916681	      7.32169979	      9.96001127	    -10.14692264	      5.15529035	     -4.61242501	     11.57977943	     33.23853412	     -3.43283565	     -0.79328194	    -39.14307592	     -3.92612405	     -5.80313520	     14.75086080	      4.63756869	      1.75481362	      6.55889503
      7.16000000	     -8.04923488	     -2.19817629	      0.14746850	     -0.68282097	     -0.00384224	     -0.21697710	      3.43792520	      7.29324360	     10.23490166	    -10.27561154	      5.43980613	     -4.72937467	     11.33563509	     33.35284166	     -3.36812876	     -0.72829494	    -37.64314192	     -3.67904954	     -5.60874949	     13.89371572	      4.50531107	      1.71912603	      6.82254120
      7.16500000	     -8.17172566	     -2.19543244	      0.07640157	     -0.67814262	     -0.00458298	     -0.21694070	      3.27924852	      7.31442137	     10.32961243	    -10.34732655	      5.64649486	     -4.80390538	     11.36317688	     33.60354724	     -3.31896912	     -0.51785840	    -36.10487512	     -3.60282051	     -5.41224241	     13.73308255	      4.53438968	      1.73449058	      6.90852406
